<svg width="118" height="26" viewBox="0 0 118 26" fill="none" xmlns="http://www.w3.org/2000/svg">
<path d="M12.9219 0.820312C14.276 0.820312 15.6042 0.976562 16.9062 1.28906C18.2344 1.60156 19.4974 2.07031 20.6953 2.69531C21.8932 3.29427 22.9479 4.10156 23.8594 5.11719C24.7969 6.13281 25.3047 7.34375 25.3828 8.75V10.3906V22.8516C25.2266 24.4141 24.3672 25.2604 22.8047 25.3906C22.0755 25.3906 21.4375 25.1562 20.8906 24.6875C20.3698 24.1927 20.1094 23.5807 20.1094 22.8516V9.96094C20.0573 9.15365 19.7448 8.48958 19.1719 7.96875C18.625 7.42188 18 6.99219 17.2969 6.67969C16.6198 6.36719 15.9036 6.13281 15.1484 5.97656C14.4193 5.82031 13.6771 5.74219 12.9219 5.74219C12.1667 5.74219 11.4115 5.82031 10.6562 5.97656C9.92708 6.13281 9.21094 6.36719 8.50781 6.67969C7.83073 6.99219 7.20573 7.42188 6.63281 7.96875C6.08594 8.48958 5.78646 9.15365 5.73438 9.96094V22.8516C5.60417 24.4141 4.75781 25.2604 3.19531 25.3906C2.46615 25.3906 1.82812 25.1562 1.28125 24.6875C0.760417 24.1927 0.5 23.5807 0.5 22.8516V10.3906V8.75C0.578125 7.34375 1.07292 6.13281 1.98438 5.11719C2.89583 4.10156 3.95052 3.29427 5.14844 2.69531C6.34635 2.07031 7.59635 1.60156 8.89844 1.28906C10.2266 0.976562 11.5677 0.820312 12.9219 0.820312ZM55.5781 4.49219C55.5781 5.22135 55.3177 5.83333 54.7969 6.32812C54.3021 6.84896 53.6901 7.10938 52.9609 7.10938H37.3359C36.8411 7.13542 36.4245 7.2526 36.0859 7.46094C35.7734 7.64323 35.5391 7.86458 35.3828 8.125C35.2266 8.35938 35.1484 8.60677 35.1484 8.86719C35.1484 9.1276 35.2266 9.38802 35.3828 9.64844C35.5391 9.88281 35.7734 10.1042 36.0859 10.3125C36.4245 10.4948 36.8411 10.599 37.3359 10.625H48.4297C50.2526 10.6771 51.75 11.1068 52.9219 11.9141C54.1198 12.6953 54.9661 13.6068 55.4609 14.6484C55.9818 15.6641 56.2422 16.7057 56.2422 17.7734C56.2422 18.8151 55.9818 19.8568 55.4609 20.8984C54.9401 21.9141 54.0938 22.8255 52.9219 23.6328C51.75 24.4141 50.2526 24.8047 48.4297 24.8047H48.1953C48.0391 24.8307 47.8828 24.8438 47.7266 24.8438H32.9609C32.2318 24.8438 31.6068 24.5964 31.0859 24.1016C30.5911 23.5807 30.3438 22.9557 30.3438 22.2266C30.3438 21.4974 30.6042 20.8854 31.125 20.3906C31.6198 19.8698 32.2318 19.6094 32.9609 19.6094H48.6641C49.1589 19.6354 49.5625 19.5443 49.875 19.3359C50.2135 19.1276 50.4609 18.8932 50.6172 18.6328C50.7734 18.3464 50.8516 18.0599 50.8516 17.7734C50.8516 17.5911 50.7734 17.3438 50.6172 17.0312C50.4609 16.6927 50.2135 16.4193 49.875 16.2109C49.5625 16.0026 49.1589 15.8854 48.6641 15.8594H37.5703C35.7474 15.8073 34.237 15.3906 33.0391 14.6094C31.8672 13.8281 31.0208 12.9427 30.5 11.9531C30.0052 10.9375 29.7578 9.90885 29.7578 8.86719C29.7578 7.85156 30.0182 6.84896 30.5391 5.85938C31.0599 4.84375 31.9062 3.94531 33.0781 3.16406C34.25 2.38281 35.7474 1.96615 37.5703 1.91406H37.8047C37.9609 1.88802 38.1172 1.875 38.2734 1.875H52.9609C53.6901 1.875 54.3021 2.13542 54.7969 2.65625C55.3177 3.15104 55.5781 3.76302 55.5781 4.49219ZM69.4062 18.8672C69.4062 18.138 69.6536 17.526 70.1484 17.0312C70.6693 16.5104 71.2943 16.25 72.0234 16.25H78L76.9844 13.3594C76.5677 12.2917 76.151 11.2891 75.7344 10.3516C75.3438 9.38802 74.888 8.51562 74.3672 7.73438C73.8984 6.95312 73.3646 6.53646 72.7656 6.48438C72.1406 6.53646 71.5807 6.95312 71.0859 7.73438C70.5911 8.51562 70.1354 9.38802 69.7188 10.3516C69.3281 11.2891 68.9245 12.2917 68.5078 13.3594L64.7969 23.5156C64.5365 24.0625 64.1979 24.5182 63.7812 24.8828C63.3906 25.2214 62.7917 25.3906 61.9844 25.3906C61.2292 25.3906 60.6042 25.1302 60.1094 24.6094C59.6406 24.0885 59.4323 23.4635 59.4844 22.7344C59.5104 22.3958 59.5885 22.0833 59.7188 21.7969L64.0156 10.7031C65.2135 7.78646 66.4115 5.42969 67.6094 3.63281C68.7812 1.86198 70.5 0.963542 72.7656 0.9375C75.0052 0.963542 76.7109 1.86198 77.8828 3.63281C79.0807 5.3776 80.2786 7.73438 81.4766 10.7031L85.7734 21.7969C85.9036 22.0833 85.9818 22.3958 86.0078 22.7344C86.0599 23.4635 85.8385 24.0885 85.3438 24.6094C84.875 25.1302 84.263 25.3906 83.5078 25.3906C82.6484 25.3906 82.0104 25.2214 81.5938 24.8828C81.2031 24.5182 80.8776 24.0625 80.6172 23.5156L79.875 21.4844H72.0234C71.2943 21.4844 70.6823 21.224 70.1875 20.7031C69.6667 20.2083 69.4062 19.5964 69.4062 18.8672ZM89.1719 4.49219C89.1719 3.76302 89.4193 3.15104 89.9141 2.65625C90.4349 2.13542 91.0599 1.875 91.7891 1.875H114.523C115.253 1.875 115.878 2.1224 116.398 2.61719C116.893 3.13802 117.141 3.76302 117.141 4.49219C117.141 5.22135 116.88 5.84635 116.359 6.36719C115.865 6.86198 115.253 7.10938 114.523 7.10938H105.812V22.9297C105.656 24.4922 104.797 25.3385 103.234 25.4688C102.505 25.4688 101.867 25.2344 101.32 24.7656C100.799 24.2708 100.539 23.6589 100.539 22.9297V7.10938H91.7891C91.0599 7.10938 90.4479 6.84896 89.9531 6.32812C89.4323 5.83333 89.1719 5.22135 89.1719 4.49219Z" fill="white"/>
</svg>
