<svg width="144" height="143" viewBox="0 0 144 143" fill="none" xmlns="http://www.w3.org/2000/svg">
<g id="Group 5">
<rect id="Rectangle 13" x="77.8018" y="41.8136" width="35.0577" height="52.2493" rx="5.05372" transform="rotate(45 77.8018 41.8136)" fill="#417DA6" stroke="#FCFCFC" stroke-width="2.02149"/>
<rect id="Rectangle 14" x="44.7627" y="84.5982" width="19.3941" height="10.2973" rx="1.81934" transform="rotate(45 44.7627 84.5982)" fill="#417DA6" stroke="#FCFCFC" stroke-width="2.02149"/>
<path id="Line 3" d="M37.8271 104.983L43.2429 99.567" stroke="#FCFCFC" stroke-width="2.02149" stroke-linecap="round"/>
<line id="Line 4" x1="49.5466" y1="48.6588" x2="58.9487" y2="58.0609" stroke="#FCFCFC" stroke-width="2.02149" stroke-linecap="round"/>
<line id="Line 10" x1="119.67" y1="24.1559" x2="93.4789" y2="50.3469" stroke="#FCFCFC" stroke-width="2.02149" stroke-linecap="round"/>
<line id="Line 5" x1="85.8322" y1="85.486" x2="95.2344" y2="94.8881" stroke="#FCFCFC" stroke-width="2.02149" stroke-linecap="round"/>
<path id="Rectangle 15" d="M117.324 78.814L116.609 78.0993L115.895 78.814L79.8971 114.812L79.1824 115.526L79.8971 116.241L103.429 139.773C105.402 141.746 108.602 141.746 110.576 139.773L140.856 109.493C142.829 107.519 142.829 104.319 140.856 102.346L117.324 78.814Z" fill="#1D3C53" stroke="#FCFCFC" stroke-width="2.02149"/>
<path id="Rectangle 16" d="M26.6759 64.1028L27.3906 64.8175L28.1053 64.1028L64.1029 28.1052L64.8176 27.3905L64.1029 26.6758L40.5712 3.14411C38.5976 1.17051 35.3978 1.17052 33.4242 3.14412L3.14424 33.424C1.17064 35.3976 1.17064 38.5975 3.14424 40.5711L26.6759 64.1028Z" fill="#1D3C53" stroke="#FCFCFC" stroke-width="2.02149"/>
<path id="Line 6" d="M103.9 90.9033L131.522 118.522" stroke="#FCFCFC" stroke-width="2.02149" stroke-linecap="round"/>
<path id="Line 8" d="M40.1007 52.0134L12.4785 24.3943" stroke="#FCFCFC" stroke-width="2.02149" stroke-linecap="round"/>
<path id="Line 7" d="M92.5268 102.818L120.149 130.437" stroke="#FCFCFC" stroke-width="2.02149" stroke-linecap="round"/>
<path id="Line 9" d="M51.4737 40.0987L23.8516 12.4797" stroke="#FCFCFC" stroke-width="2.02149" stroke-linecap="round"/>
<path id="Polygon 1" d="M93.5958 93.0545L99.7189 92.6349L93.1762 99.1776L93.5958 93.0545Z" fill="#FCFCFC"/>
<path id="Polygon 2" d="M50.4042 49.8622L44.2811 50.2819L50.8238 43.7392L50.4042 49.8622Z" fill="#FCFCFC"/>
<path id="Polygon 3" d="M100.415 44.0197L101.456 64.9609L79.4743 42.9788L100.415 44.0197Z" fill="#FCFCFC"/>
<g id="Subtract">
<mask id="path-16-outside-1_6_85" maskUnits="userSpaceOnUse" x="93.3184" y="11.3055" width="38" height="38" fill="black">
<rect fill="white" x="93.3184" y="11.3055" width="38" height="38"/>
<path fill-rule="evenodd" clip-rule="evenodd" d="M102.402 14.5413C102.083 14.2222 101.563 14.225 101.263 14.5618C98.1875 18.0084 96.3184 22.5546 96.3184 27.5373C96.3184 38.305 105.047 47.034 115.815 47.034C120.798 47.034 125.344 45.1649 128.791 42.0895C129.127 41.7891 129.13 41.2691 128.811 40.95L102.402 14.5413Z"/>
</mask>
<path fill-rule="evenodd" clip-rule="evenodd" d="M102.402 14.5413C102.083 14.2222 101.563 14.225 101.263 14.5618C98.1875 18.0084 96.3184 22.5546 96.3184 27.5373C96.3184 38.305 105.047 47.034 115.815 47.034C120.798 47.034 125.344 45.1649 128.791 42.0895C129.127 41.7891 129.13 41.2691 128.811 40.95L102.402 14.5413Z" fill="#417DA6"/>
<path d="M128.791 42.0895L127.445 40.5812L128.791 42.0895ZM128.811 40.95L130.24 39.5206L128.811 40.95ZM98.3398 27.5373C98.3398 23.0699 100.014 18.9983 102.771 15.9076L99.7545 13.2159C96.3615 17.0186 94.2969 22.0393 94.2969 27.5373H98.3398ZM115.815 45.0126C106.164 45.0126 98.3398 37.1886 98.3398 27.5373H94.2969C94.2969 39.4215 103.931 49.0555 115.815 49.0555V45.0126ZM127.445 40.5812C124.354 43.3389 120.283 45.0126 115.815 45.0126V49.0555C121.313 49.0555 126.334 46.9909 130.136 43.5979L127.445 40.5812ZM130.24 39.5206L103.832 13.1119L100.973 15.9707L127.382 42.3794L130.24 39.5206ZM130.136 43.5979C131.382 42.4866 131.341 40.6208 130.24 39.5206L127.382 42.3794C126.92 41.9174 126.873 41.0915 127.445 40.5812L130.136 43.5979ZM102.771 15.9076C102.261 16.4795 101.435 16.4327 100.973 15.9707L103.832 13.1119C102.732 12.0117 100.866 11.9705 99.7545 13.2159L102.771 15.9076Z" fill="#FCFCFC" mask="url(#path-16-outside-1_6_85)"/>
</g>
</g>
</svg>
